<?xml version="1.0" encoding="utf-8"?>
<!-- Generator: Adobe Illustrator 16.0.0, SVG Export Plug-In . SVG Version: 6.00 Build 0)  -->
<!DOCTYPE svg PUBLIC "-//W3C//DTD SVG 1.1//EN" "http://www.w3.org/Graphics/SVG/1.1/DTD/svg11.dtd">
<svg version="1.1" id="Ebene_1" xmlns="http://www.w3.org/2000/svg" xmlns:xlink="http://www.w3.org/1999/xlink" x="0px" y="0px"
	 width="141.732px" height="141.73px" viewBox="0 0 141.732 141.73" enable-background="new 0 0 141.732 141.73"
	 xml:space="preserve">
<g>
	<g>
		<path d="M72.832,56.364V43.386c0-2.123-0.529-3.386-2.307-3.386c-2.463,0-4.39,3.02-4.39,6.568v9.795H61.29v-29.79h4.846v8.69
			c0,1.227-0.077,2.94-0.344,4.123l0.078,0.04c1.098-2.283,3.254-3.792,6.167-3.792c4.238,0,5.603,2.938,5.603,6.487v14.242
			L72.832,56.364L72.832,56.364z"/>
		<path d="M82.611,35.39c-0.051-0.328-0.174-0.679-0.262-1.006c-1.353-5.083-6.429-7.979-11.267-6.481
			c-0.227,0.07-0.447,0.156-0.666,0.245C75.617,26.925,80.945,30.036,82.611,35.39"/>
		<path d="M85.52,32.887c-0.062-0.393-0.205-0.814-0.312-1.208c-1.627-6.121-7.74-9.607-13.567-7.806
			c-0.275,0.086-0.538,0.188-0.8,0.293C77.1,22.695,83.516,26.445,85.52,32.887"/>
		<path d="M88.248,30.758c-0.072-0.457-0.24-0.943-0.36-1.4c-1.886-7.089-8.968-11.127-15.716-9.042
			c-0.315,0.101-0.623,0.223-0.928,0.343C78.496,18.955,85.922,23.296,88.248,30.758"/>
		<path d="M91.131,28.284c-0.086-0.525-0.274-1.083-0.414-1.605c-2.159-8.117-10.266-12.74-17.991-10.351
			c-0.365,0.112-0.716,0.252-1.062,0.391C79.965,14.767,88.471,19.74,91.131,28.284"/>
	</g>
	<g>
		<polygon points="29.346,81.949 29.346,74.377 23.607,74.377 23.607,81.949 18.32,81.949 18.32,62.733 23.607,62.733 
			23.607,69.735 29.346,69.735 29.346,62.733 34.632,62.733 34.632,81.949 		"/>
		<path d="M50.55,81.95c-1.734,0-2.872,0.312-4.664,0.312c-5.738,0-8.693-3.759-8.693-9.652c0-6.148,4.12-10.104,9.179-10.104
			c1.848,0,2.584,0.229,3.921,0.229h8.014v4.496h-5.939v2.706h5.629v4.327h-5.629v3.104h5.939v4.584L50.55,81.95L50.55,81.95z
			 M47.338,67.372c-0.312-0.057-0.654-0.084-0.996-0.084c-2.129,0-3.666,1.878-3.666,4.954c0,3.528,1.365,5.237,3.639,5.237
			c0.369,0,0.795-0.057,1.022-0.112L47.338,67.372L47.338,67.372z"/>
		<polygon points="72.318,81.949 72.318,74.377 66.578,74.377 66.578,81.949 61.291,81.949 61.291,62.733 66.578,62.733 
			66.578,69.735 72.318,69.735 72.318,62.733 77.602,62.733 77.602,81.949 		"/>
		<polygon points="80.842,81.949 80.842,62.733 86.129,62.733 86.129,77.224 91.414,77.224 91.414,81.949 		"/>
		<polygon points="93.691,81.949 93.691,62.733 104.914,62.733 104.914,67.229 98.975,67.229 98.975,69.936 104.602,69.936 
			104.602,74.263 98.975,74.263 98.975,77.366 104.914,77.366 104.914,81.949 		"/>
		<path d="M116.99,81.949l-3.607-7.006h-0.2v7.006h-5.283V62.733c1.791-0.113,4.147-0.143,6.561-0.143
			c4.892,0,7.619,1.736,7.619,6.006c0,2.278-1.281,4.469-3.496,5.266c0.512,0.771,0.965,1.481,1.396,2.223l3.436,5.864
			L116.99,81.949L116.99,81.949z M114.177,66.945c-0.34,0-0.823,0.027-0.995,0.057v4.131c0.2,0.025,0.598,0.055,0.885,0.055
			c1.447,0,2.442-0.768,2.442-2.19C116.51,67.857,115.91,66.945,114.177,66.945"/>
	</g>
</g>
</svg>
